<svg width="648" height="603" viewBox="0 0 648 603" fill="none" xmlns="http://www.w3.org/2000/svg">
<path d="M574.507 154.21C581.817 154.408 594.461 155.594 602.561 157.176C610.661 158.559 619.551 160.339 622.317 160.932C625.083 161.525 629.824 163.107 632.788 164.491C635.751 165.875 639.11 169.236 640.098 172.003C641.085 174.771 642.864 181.098 644.049 186.436C645.037 191.576 646.617 205.218 647.21 217.08C648 228.745 648 240.607 647.21 243.77C646.617 246.736 644.049 250.097 641.481 251.481C638.517 253.062 627.256 253.656 606.512 253.458C589.522 253.26 574.507 253.853 572.927 255.039C570.556 256.423 569.964 261.168 569.964 275.601C569.964 288.452 569.173 295.174 567.395 296.953C565.617 298.732 558.505 299.325 541.712 299.128C524.92 298.732 517.412 297.744 514.054 295.569C511.683 293.987 509.115 290.231 508.127 287.068C507.337 284.102 506.744 272.833 506.744 261.761C506.744 246.934 507.534 241.002 509.707 238.432C512.078 235.862 516.029 235.071 527.883 235.269C539.144 235.269 544.873 234.28 549.22 231.908C553.368 229.338 555.344 226.372 556.134 221.43C556.529 217.673 556.727 210.951 556.134 206.602C555.739 202.252 554.751 191.181 553.961 181.889C552.776 166.468 553.171 164.688 557.122 159.548C560.876 154.605 562.456 154.21 574.507 154.21V154.21ZM75.0733 197.705C79.8147 197.705 83.1733 198.891 85.9391 201.857C89.6928 205.613 89.6928 207.393 88.3099 228.942C87.3221 241.793 86.3343 252.469 85.9391 253.062C85.544 253.656 84.9513 262.552 84.7538 272.833C84.3586 285.881 85.1489 293.197 87.1245 297.151C88.9025 300.709 92.0635 303.082 95.8172 303.675C99.1757 304.466 104.905 304.466 108.659 303.675C112.412 303.082 117.154 301.5 119.129 300.116C121.105 298.732 123.476 293.987 124.464 289.638C125.451 285.288 125.846 278.566 125.254 274.81C124.661 271.054 125.056 264.134 126.242 259.587C127.427 254.644 130.39 249.899 132.761 248.318C135.329 246.736 145.405 244.363 155.085 243.177C164.766 241.991 175.434 241.596 178.793 242.189C182.151 242.979 186.103 243.77 187.683 244.166C189.264 244.561 191.634 246.934 192.82 249.504C194.005 252.074 194.598 260.773 194.203 268.879C193.807 276.985 194.005 286.672 194.598 290.231C195.388 295.174 197.166 297.151 202.5 299.523C206.451 301.302 216.132 302.686 225.615 302.686C234.703 302.884 254.064 302.291 268.683 301.5C291.995 300.116 296.539 300.314 304.244 303.477C309.183 305.257 314.32 308.222 315.505 309.606C316.888 311.188 319.456 315.537 321.037 319.294C323.407 324.829 324 337.285 324.395 380.187C324.79 424.275 324.395 434.951 322.025 439.696C320.444 442.859 316.493 447.406 313.529 449.581C308.195 453.535 306.022 453.733 271.054 452.744C250.705 452.349 226.8 451.954 217.712 451.756C204.871 451.756 200.722 452.547 198.944 454.919C197.561 456.699 195.981 469.747 195.19 484.575C194.4 502.171 193.017 511.858 191.239 513.637C189.461 515.417 182.151 516.405 167.927 516.405C156.468 516.603 143.429 515.615 138.688 514.231C134.144 513.044 128.217 510.079 125.846 507.509C122.488 504.543 120.71 499.798 119.92 492.285C119.129 486.354 118.142 472.713 117.549 462.037C116.759 447.604 117.351 441.08 119.524 435.939C121.303 431.985 124.266 428.427 126.834 427.834C129.403 427.043 136.317 427.24 142.244 428.229C148.171 429.02 156.666 429.613 161.012 429.415C165.359 429.218 170.495 427.438 172.273 425.461C174.446 423.286 176.422 416.564 177.805 407.272C178.793 399.166 179.583 382.757 179.583 370.697C179.583 358.637 178.793 343.809 178.2 337.482C177.212 329.179 175.632 325.027 172.866 323.05C170.298 321.271 164.173 320.282 155.481 320.282C143.429 320.282 142.244 320.678 141.256 324.632C140.664 327.202 140.268 338.471 140.268 349.938C140.268 363.975 139.478 373.069 137.305 378.012C135.527 382.757 132.366 386.316 128.81 387.699C125.846 388.886 116.759 389.874 108.659 389.874C100.559 389.677 92.0635 389.281 89.8904 388.688C87.7172 388.293 84.5562 387.699 82.9757 387.699C81.3952 387.699 78.2343 386.316 76.0611 384.734C72.505 382.164 71.9123 379 71.1221 356.067C70.5294 338.866 69.344 329.574 67.566 327.795C65.5904 326.016 57.0952 325.225 35.7586 325.225C12.644 325.225 5.72938 324.632 2.96352 322.259C0.000109351 319.689 -0.395013 317.119 0.790353 300.512C1.5806 290.231 2.37084 279.159 2.76596 275.798C3.16108 272.438 4.14889 263.541 4.93913 256.028C5.53182 248.515 7.1123 238.235 8.29767 233.292C9.48304 228.349 11.6562 222.418 13.0391 219.848C14.6196 217.476 18.7684 213.917 22.3245 212.138C25.683 210.358 37.5367 206.404 48.4026 203.438C59.2684 200.473 71.3196 197.903 75.0733 197.705V197.705ZM158.642 545.073L180.571 546.259C192.622 546.654 204.871 548.236 208.032 549.422C211.785 551.004 213.761 553.574 214.551 558.121C215.342 561.482 216.329 571.17 217.12 579.276C217.91 587.381 217.91 596.278 217.317 599.046C216.132 603.791 215.539 603.989 201.315 603.791C193.215 603.593 181.559 602.012 175.434 600.232C167.927 598.255 163.581 595.883 163.185 593.708C162.593 591.731 161.21 584.811 160.024 578.287C159.037 571.763 158.246 561.68 158.246 555.749L158.642 545.073Z" fill="#737373"/>
<path d="M284.488 0V17.398C284.488 31.4351 283.698 36.18 280.142 43.2974C277.178 48.8331 273.029 53.3803 268.683 55.7528C263.744 58.323 257.422 59.3115 247.347 59.3115C239.444 59.3115 229.764 60.6954 225.812 62.277C220.478 64.2541 217.317 67.2197 214.749 72.5577C212.971 76.7095 210.403 85.0131 209.415 90.9443C208.229 96.8754 206.649 111.308 204.476 143.929L218.7 144.522C228.973 145.115 233.912 146.302 236.481 148.872C239.444 151.837 240.037 155.791 240.037 174.573C240.037 186.831 238.851 200.077 237.468 204.031C235.69 209.765 233.32 212.335 227.788 214.708C223.047 216.685 212.378 218.266 199.537 218.859C180.571 219.848 178.398 219.452 173.459 215.696C168.125 211.742 167.927 210.951 167.927 172.003H151.529C142.639 172.003 127.822 172.992 118.537 174.178C106.486 175.76 100.164 175.76 96.2124 174.178C93.249 172.992 90.2856 170.026 89.6929 167.456C89.1002 165.084 90.8783 151.047 93.8417 136.416C96.6075 121.786 100.361 105.179 102.139 99.841C103.72 94.3052 107.473 86.397 110.437 82.2452C113.795 77.1049 119.129 72.7554 125.451 69.9875C130.983 67.4174 147.183 62.6725 161.605 59.3115C175.829 56.1482 190.844 51.9964 194.598 50.4148C198.351 48.8331 202.698 45.4721 204.278 42.902C205.859 40.5295 207.637 35.3892 208.427 31.6328C209.02 27.8764 210.6 21.7475 211.588 18.1889C212.576 14.8279 215.144 10.8738 217.317 9.88525C219.49 8.89672 228.973 6.12885 238.654 4.1518C248.137 1.97705 262.361 0.197705 284.488 0V0Z" fill="#BDBFC1"/>
<path d="M363.512 10.8739C377.144 11.2694 389.788 12.0602 391.763 13.0487C393.739 14.0372 396.307 17.9913 397.493 21.7477C398.678 25.5041 399.271 32.6215 399.073 37.5641C398.876 42.5067 398.678 47.8448 398.876 49.4264C398.876 51.008 401.049 53.5782 403.419 55.1598C406.58 56.9392 420.41 58.3231 449.451 59.5094C472.368 60.3002 495.483 62.0795 500.817 63.2658C506.151 64.452 512.671 67.4176 515.239 69.79C518.005 72.5579 520.771 79.4776 523.141 88.9674C525.512 100.039 526.5 112.692 526.5 138.394C526.5 157.373 525.907 175.364 524.92 178.528C523.932 182.482 521.561 184.459 516.029 186.238C510.893 188.018 492.915 188.808 455.378 188.808C412.31 188.808 400.851 188.215 396.307 185.843C393.146 184.261 388.602 180.307 386.429 177.341C382.478 172.003 382.28 169.038 382.28 131.869C382.083 109.924 381.49 88.9674 380.7 85.6064C379.91 82.0477 377.737 78.489 375.761 77.8959C373.983 77.1051 364.302 76.3143 354.622 75.9189C342.176 75.5235 334.866 76.1166 330.322 78.2913C324.988 80.6638 323.802 82.2454 323.012 89.3628C322.419 94.1077 321.629 103.004 321.037 109.133C320.444 115.46 319.259 122.577 318.271 124.95C317.48 127.52 313.727 130.881 309.973 132.462C305.034 134.637 295.946 135.428 275.993 135.428C253.866 135.428 248.334 134.835 246.951 132.462C245.963 130.881 244.976 121.984 244.976 112.692C244.976 103.4 246.161 92.1307 247.544 87.5835C248.729 83.0362 251.495 77.5005 253.273 75.128C255.249 72.9533 258.805 70.7785 261.176 70.3831C263.744 69.9877 274.61 68.6038 285.476 67.4176C301.083 65.8359 306.022 64.452 309.183 61.2887C312.146 58.1254 313.332 53.3805 314.32 40.9251C314.912 32.0284 316.69 22.7362 318.271 20.3638C319.851 17.7936 323.21 15.0258 325.976 14.0372C328.741 12.851 332.693 11.6648 334.866 11.2694C337.039 10.8739 349.88 10.6762 363.512 10.8739V10.8739ZM536.773 79.0821H550.405C557.912 79.0821 568.383 80.2684 583.793 84.8156L586.163 104.191C587.546 114.867 587.744 123.961 586.954 124.554C585.966 125.147 579.051 125.741 571.741 126.136C564.234 126.334 555.344 125.741 552.183 124.752C549.022 123.566 544.478 120.205 542.502 117.239C539.737 113.285 538.354 107.156 537.761 95.294L536.773 79.0821Z" fill="#737373"/>
<path d="M325.976 157.373C339.607 157.769 351.461 159.153 352.646 160.339C353.832 161.327 354.82 172.794 355.215 185.447C355.61 203.834 356.4 209.172 358.968 211.544C361.537 213.917 371.217 214.708 410.729 215.498C444.117 216.092 460.712 217.278 463.873 219.057C466.244 220.243 469.603 224.593 471.183 228.349C473.554 233.885 474.146 244.759 474.146 281.73C474.146 318.7 473.554 329.574 471.183 335.11C469.405 339.064 465.454 343.413 461.898 345.391C456.168 348.356 449.056 348.949 407.964 348.949C375.168 348.949 358.178 348.158 353.239 346.577C349.09 345.193 344.349 342.03 342.768 339.657C340.398 335.901 339.805 327.597 339.805 296.162C339.805 274.612 339.015 252.667 337.829 247.131C336.644 241.793 335.261 237.246 334.471 237.048C333.483 237.048 321.629 236.257 307.8 235.664C287.451 234.478 281.92 233.687 279.154 230.722C276.19 227.954 275.4 223.209 274.807 206.009C274.61 194.344 275.203 180.505 276.388 174.969C277.573 169.631 279.944 163.7 281.722 162.118C283.698 160.536 288.834 158.559 293.181 157.769C297.725 156.978 312.344 156.78 325.976 157.373V157.373Z" fill="#BDBFC1"/>
</svg>
